<svg xmlns="http://www.w3.org/2000/svg" width="100" height="100" viewBox="0 0 100 100"><g id="Group_133" data-name="Group 133" transform="translate(-266.031 -6492.456)"><rect id="Rectangle_11" data-name="Rectangle 11" width="100" height="100" rx="20" transform="translate(266.031 6492.456)" fill="#5bc0ea" opacity="0.2"></rect><g id="Group_93" data-name="Group 93" transform="translate(138 -657.133)"><path id="Path_80" data-name="Path 80" d="M62.852,17.55H38.165a15.1,15.1,0,1,0,0,15.1h9.587l3.775-3.775L55.3,32.651l3.775-3.775,3.775,3.775L70.4,25.1ZM17.55,28.876A3.775,3.775,0,1,1,21.325,25.1,3.776,3.776,0,0,1,17.55,28.876Z" transform="translate(138 7162)" fill="#5bc0ea"></path><path id="Path_81" data-name="Path 81" d="M10,61.325v7.55h3.775v7.55H17.55V72.651h3.775v3.775H25.1v-7.55H47.752a11.325,11.325,0,1,0,22.651,0v-7.55a11.325,11.325,0,0,0-22.651,0Zm45.3,0a3.775,3.775,0,0,1,7.55,0v7.55a3.775,3.775,0,0,1-7.55,0Z" transform="translate(138 7152.201)" fill="#5bc0ea"></path></g></g></svg>