<svg xmlns="http://www.w3.org/2000/svg" width="100" height="100" viewBox="0 0 100 100"><g id="Group_135" data-name="Group 135" transform="translate(-1244.031 -6492.456)"><g id="Group_29" data-name="Group 29" transform="translate(1244.031 6492.456)" opacity="0.2"><rect id="Rectangle_11" data-name="Rectangle 11" width="100" height="100" rx="20" fill="#5bc0ea"></rect></g><g transform="translate(1200.633 6577.787)"><path id="Path_84" data-name="Path 84" d="M48.035,34.27a.994.994,0,0,1,.719-.309H51.9V23.62a22.239,22.239,0,0,1-5.641,1.6,98.807,98.807,0,0,1-16.61,1.238,98.9,98.9,0,0,1-16.593-1.235A22.272,22.272,0,0,1,7.4,23.62V38.353c.193.335,1.7,1.314,6.627,2.133a99.911,99.911,0,0,0,15.625,1.1c3.009,0,5.922-.1,8.674-.3v-.6a.991.991,0,0,1,.815-.975C42.125,39.172,45.118,37.341,48.035,34.27ZM13.926,36.08a3.226,3.226,0,1,1,3.223-3.218,3.226,3.226,0,0,1-3.223,3.218Zm8.256.941a3.221,3.221,0,1,1,0,.005Zm7.161-2.009a.991.991,0,1,1,0-1.983c7.187,0,13.921-.655,18.012-1.752a.991.991,0,1,1,.513,1.915C43.62,34.332,36.695,35.013,29.342,35.013ZM15.167,32.862a1.244,1.244,0,1,1-1.244-1.243A1.244,1.244,0,0,1,15.167,32.862Zm8.256.941A1.243,1.243,0,1,1,22.18,32.56,1.243,1.243,0,0,1,23.423,33.8Zm-9.4-10.428a99.9,99.9,0,0,0,15.625,1.1,99.919,99.919,0,0,0,15.623-1.1c4.924-.819,6.434-1.8,6.626-2.133V6.507a22.312,22.312,0,0,1-5.654,1.6,98.674,98.674,0,0,1-16.6,1.241,98.684,98.684,0,0,1-16.6-1.241A22.322,22.322,0,0,1,7.4,6.507V21.246C7.591,21.581,9.1,22.559,14.025,23.376Zm15.317-7.454c7.187,0,13.921-.652,18.012-1.752a.991.991,0,1,1,.513,1.915c-4.249,1.14-11.174,1.82-18.525,1.82a.991.991,0,0,1,0-1.983ZM22.18,13.467a3.226,3.226,0,1,1-3.226,3.226,3.226,3.226,0,0,1,3.226-3.226Zm-8.256-.941A3.226,3.226,0,1,1,10.7,15.751a3.226,3.226,0,0,1,3.226-3.226ZM12.68,15.75a1.244,1.244,0,1,1,1.244,1.243A1.244,1.244,0,0,1,12.68,15.75Zm8.256.941a1.632,1.632,0,1,0,.007,0ZM7.432,4.185c.3-.374,1.9-1.3,6.612-2.086A99.7,99.7,0,0,1,29.651,1,99.7,99.7,0,0,1,45.257,2.1c4.712.784,6.309,1.711,6.612,2.087-.3.374-1.9,1.3-6.612,2.086a99.79,99.79,0,0,1-15.606,1.1,99.8,99.8,0,0,1-15.607-1.1C9.333,5.489,7.735,4.557,7.432,4.185Zm5.626,38.148a22.232,22.232,0,0,1-5.658-1.6V55.463c.2.337,1.711,1.314,6.627,2.131a99.815,99.815,0,0,0,15.625,1.1c3.01,0,5.922-.1,8.674-.3V51.77c-2.834.232-5.848.35-8.98.35a.991.991,0,0,1,0-1.982c3.139,0,6.155-.122,8.98-.362V43.268c-2.758.2-5.67.3-8.674.3a98.9,98.9,0,0,1-16.594-1.235ZM13.927,53.2a3.226,3.226,0,1,1,3.225-3.226A3.226,3.226,0,0,1,13.927,53.2Zm8.256.941a3.226,3.226,0,1,1,3.226-3.226,3.226,3.226,0,0,1-3.226,3.226Zm-7.014-4.168a1.244,1.244,0,1,1-1.244-1.247,1.244,1.244,0,0,1,1.244,1.247Zm8.256.941a1.243,1.243,0,1,1-1.242-1.247,1.243,1.243,0,0,1,1.242,1.247ZM56.612,35.943H49.175a19.051,19.051,0,0,1-8.867,5.543V58.643c2.028,6.2,5.163,7.242,10.824,9.113.568.188,1.152.381,1.762.588.61-.207,1.194-.4,1.762-.588,5.662-1.871,8.8-2.908,10.823-9.113V41.486A19.055,19.055,0,0,1,56.612,35.943ZM61,58.624a2.673,2.673,0,0,1-2.669,2.669H47.457a2.672,2.672,0,0,1-2.669-2.669V51.576a2.672,2.672,0,0,1,2.322-2.644V46.894a5.785,5.785,0,0,1,11.569,0v2.039A2.672,2.672,0,0,1,61,51.576ZM58.331,50.89H47.457a.7.7,0,0,0-.687.687v7.048a.688.688,0,0,0,.687.687H58.331a.687.687,0,0,0,.687-.687V51.576a.7.7,0,0,0-.687-.687Zm-4.446,5.628v.816a.991.991,0,1,1-1.983,0v-.816a2.427,2.427,0,1,1,1.983,0Zm2.81-7.61h-7.6V46.894a3.8,3.8,0,1,1,7.6,0Zm-3.357,5.4a.445.445,0,1,1-.445-.445.445.445,0,0,1,.445.445Z" transform="translate(56.959 -70)" fill="#5bc0ea"></path></g></g></svg>