<svg xmlns="http://www.w3.org/2000/svg" width="100" height="100" viewBox="0 0 100 100"><g id="Group_134" data-name="Group 134" transform="translate(-755.031 -6492.456)"><rect id="Rectangle_11" data-name="Rectangle 11" width="100" height="100" rx="20" transform="translate(755.031 6492.456)" fill="#5bc0ea" opacity="0.2"></rect><g id="noun-black-hat-hacker-97457" transform="translate(774 6507.548)"><g id="Group_94" data-name="Group 94" transform="translate(6.28 45.847)"><rect id="Rectangle_22" data-name="Rectangle 22" width="3.397" height="3.396" transform="translate(0 5.661)" fill="#5bc0ea"></rect><rect id="Rectangle_23" data-name="Rectangle 23" width="3.396" height="3.396" transform="translate(5.57 5.661)" fill="#5bc0ea"></rect><rect id="Rectangle_24" data-name="Rectangle 24" width="3.399" height="3.396" transform="translate(11.271 5.661)" fill="#5bc0ea"></rect><rect id="Rectangle_25" data-name="Rectangle 25" width="3.392" height="3.396" transform="translate(16.844 5.661)" fill="#5bc0ea"></rect><rect id="Rectangle_26" data-name="Rectangle 26" width="3.395" height="3.396" transform="translate(22.543 5.661)" fill="#5bc0ea"></rect><rect id="Rectangle_27" data-name="Rectangle 27" width="3.397" height="3.396" transform="translate(28.111 5.661)" fill="#5bc0ea"></rect><rect id="Rectangle_28" data-name="Rectangle 28" width="3.398" height="3.396" transform="translate(33.813 5.661)" fill="#5bc0ea"></rect><rect id="Rectangle_29" data-name="Rectangle 29" width="3.397" height="3.396" transform="translate(39.385 5.661)" fill="#5bc0ea"></rect><rect id="Rectangle_30" data-name="Rectangle 30" width="3.397" height="3.395" transform="translate(0 11.346)" fill="#5bc0ea"></rect><rect id="Rectangle_31" data-name="Rectangle 31" width="3.396" height="3.395" transform="translate(5.57 11.346)" fill="#5bc0ea"></rect><rect id="Rectangle_32" data-name="Rectangle 32" width="25.94" height="3.395" transform="translate(11.271 11.346)" fill="#5bc0ea"></rect><rect id="Rectangle_33" data-name="Rectangle 33" width="3.397" height="3.395" transform="translate(39.385 11.346)" fill="#5bc0ea"></rect><rect id="Rectangle_34" data-name="Rectangle 34" width="3.395" height="3.396" transform="translate(45.13 5.661)" fill="#5bc0ea"></rect><rect id="Rectangle_35" data-name="Rectangle 35" width="3.397" height="3.396" fill="#5bc0ea"></rect><rect id="Rectangle_36" data-name="Rectangle 36" width="3.396" height="3.396" transform="translate(5.57)" fill="#5bc0ea"></rect><rect id="Rectangle_37" data-name="Rectangle 37" width="3.399" height="3.396" transform="translate(11.271)" fill="#5bc0ea"></rect><rect id="Rectangle_38" data-name="Rectangle 38" width="3.392" height="3.396" transform="translate(16.844)" fill="#5bc0ea"></rect><rect id="Rectangle_39" data-name="Rectangle 39" width="3.395" height="3.396" transform="translate(22.543)" fill="#5bc0ea"></rect><rect id="Rectangle_40" data-name="Rectangle 40" width="3.397" height="3.396" transform="translate(28.111)" fill="#5bc0ea"></rect><rect id="Rectangle_41" data-name="Rectangle 41" width="3.398" height="3.396" transform="translate(33.813)" fill="#5bc0ea"></rect><rect id="Rectangle_42" data-name="Rectangle 42" width="3.397" height="3.396" transform="translate(39.385)" fill="#5bc0ea"></rect><rect id="Rectangle_43" data-name="Rectangle 43" width="3.395" height="3.396" transform="translate(45.13)" fill="#5bc0ea"></rect><rect id="Rectangle_44" data-name="Rectangle 44" width="3.395" height="3.395" transform="translate(45.13 11.346)" fill="#5bc0ea"></rect></g><path id="Path_82" data-name="Path 82" d="M53.029,31.287a1.469,1.469,0,0,0-1.16-.327s.013-7.09.013-7.136a7.168,7.168,0,1,0-14.335,0c0,.075-.024,7.122-.024,7.122a1.364,1.364,0,0,0-1.051.341,1.477,1.477,0,0,0-.186,2.05l8.5,10.219,8.493-10.331A1.454,1.454,0,0,0,53.029,31.287Zm-13.3-6.1a1,1,0,0,1,1-1.006H43a1.006,1.006,0,1,1,0,2.012H40.739A1,1,0,0,1,39.734,25.186Zm4.985,7.077a1.8,1.8,0,1,1,1.8-1.8A1.8,1.8,0,0,1,44.719,32.262Zm3.9-6.07H46.353a1.006,1.006,0,0,1,0-2.012h2.264a1.006,1.006,0,0,1,0,2.012Z" transform="translate(-13.892 -3.26)" fill="#5bc0ea"></path><g id="Group_95" data-name="Group 95" transform="translate(0.679 8.372)"><path id="Path_83" data-name="Path 83" d="M54.856,21.931v-9.8A3.484,3.484,0,0,0,51.1,8.372H10.074a3.486,3.486,0,0,0-3.757,3.754v9.808a6.858,6.858,0,0,0,0,13.5v7.5H54.856v-7.5a6.858,6.858,0,0,0,0-13.5Zm-2.531-.122H49.306a1.42,1.42,0,1,0,0,2.84h3.019v.818h-6.2a1.422,1.422,0,0,0,0,2.843h6.2v.8H47.713a1.422,1.422,0,0,0,0,2.843h4.611v.8H50.242a1.418,1.418,0,1,0,0,2.835h2.083V40.4h-4.5c-.044-4.95-3.726-7.745-8.6-7.745H38.9l-8.01,9.739-8.1-9.739h-.376c-4.88,0-8.561,2.8-8.612,7.744H8.848V35.581h2.09a1.418,1.418,0,1,0,0-2.836H8.848v-.8h4.617a1.422,1.422,0,0,0,0-2.843H8.848v-.8h6.2a1.421,1.421,0,1,0,0-2.841H8.848v-.818h3.027a1.421,1.421,0,0,0,0-2.842H8.848V12.126c0-.926.3-1.224,1.226-1.224H51.1c.927,0,1.225.3,1.225,1.224v9.683Z" transform="translate(-0.679 -8.372)" fill="#5bc0ea"></path></g></g></g></svg>